<?xml version="1.0" standalone="no"?>
<!DOCTYPE svg PUBLIC "-//W3C//DTD SVG 20010904//EN"
 "http://www.w3.org/TR/2001/REC-SVG-20010904/DTD/svg10.dtd">
<svg version="1.0" xmlns="http://www.w3.org/2000/svg"
 width="744.000000pt" height="744.000000pt" viewBox="0 0 744.000000 744.000000"
 preserveAspectRatio="xMidYMid meet">
<metadata>
Created by potrace 1.14, written by Peter Selinger 2001-2017
</metadata>
<g transform="translate(0.000000,744.000000) scale(0.100000,-0.100000)"
fill="#000000" stroke="none">
<path d="M3215 7119 c-738 -75 -1390 -392 -1906 -926 -422 -437 -713 -1007
-814 -1593 -47 -270 -59 -616 -30 -876 9 -76 12 -140 8 -144 -5 -3 -38 -30
-74 -58 -115 -92 -176 -193 -199 -331 -7 -41 -10 -99 -6 -128 6 -56 43 -139
70 -162 8 -7 12 -19 10 -26 -7 -16 9 -47 48 -97 l28 -36 -28 -49 c-37 -62 -72
-156 -72 -191 0 -30 34 -92 50 -92 5 0 10 -15 10 -32 0 -18 8 -43 18 -54 36
-46 82 -53 197 -33 38 6 75 7 96 2 l34 -9 -63 -34 c-86 -46 -137 -106 -163
-193 -26 -84 -21 -148 16 -214 14 -25 25 -56 25 -70 0 -58 69 -132 160 -172
204 -88 214 -98 223 -197 8 -80 60 -244 96 -298 40 -61 99 -86 224 -96 175
-14 214 -30 358 -143 324 -255 672 -357 1217 -357 471 0 936 81 1486 260 157
51 197 60 230 54 42 -7 59 -21 206 -181 162 -176 420 -177 588 -4 58 59 104
156 108 228 2 30 8 71 15 90 20 60 14 172 -11 226 -12 26 -26 50 -32 53 -5 3
6 14 24 23 142 75 444 263 619 386 396 279 728 614 892 900 56 98 110 222 102
235 -3 6 -1 10 4 10 6 0 10 3 9 8 -1 4 15 58 35 120 21 63 44 148 52 190 18
92 20 278 4 383 -12 74 -11 78 19 161 17 48 31 94 30 105 0 10 13 47 28 83 36
85 46 239 19 319 -13 39 -14 55 -5 72 7 12 10 32 8 44 -4 17 1 26 18 34 63 28
75 119 28 215 -35 71 -126 172 -209 231 l-62 45 5 74 c4 60 -1 91 -22 167 -71
245 -210 397 -407 444 -68 16 -232 19 -311 6 l-46 -8 -27 68 c-14 37 -66 128
-114 201 -491 746 -1256 1230 -2142 1353 -136 19 -544 28 -674 14z m590 -144
c172 -20 234 -31 370 -64 129 -32 289 -80 283 -86 -2 -2 -53 12 -113 30 -276
84 -534 119 -860 119 -239 -1 -384 -14 -585 -54 -56 -12 -104 -19 -106 -17 -9
9 262 59 411 76 117 14 470 12 600 -4z m-1040 -85 c-11 -5 -27 -9 -35 -9 -9 0
-8 4 5 9 11 5 27 9 35 9 9 0 8 -4 -5 -9z m-70 -20 c-11 -5 -27 -9 -35 -9 -9 0
-8 4 5 9 11 5 27 9 35 9 9 0 8 -4 -5 -9z m-70 -20 c-11 -5 -27 -9 -35 -9 -9 0
-8 4 5 9 11 5 27 9 35 9 9 0 8 -4 -5 -9z m-65 -20 c-8 -5 -19 -10 -25 -10 -5
0 -3 5 5 10 8 5 20 10 25 10 6 0 3 -5 -5 -10z m1156 -10 c187 -15 191 -18 125
-81 -45 -42 -122 -74 -229 -95 -191 -37 -411 12 -499 110 l-37 40 38 8 c121
25 403 34 602 18z m844 -30 c8 -5 11 -10 5 -10 -5 0 -17 5 -25 10 -8 5 -10 10
-5 10 6 0 17 -5 25 -10z m50 -20 c8 -5 11 -10 5 -10 -5 0 -17 5 -25 10 -8 5
-10 10 -5 10 6 0 17 -5 25 -10z m-2305 -40 c-3 -5 -12 -10 -18 -10 -7 0 -6 4
3 10 19 12 23 12 15 0z m2400 -8 c-3 -3 -11 0 -18 7 -9 10 -8 11 6 5 10 -3 15
-9 12 -12z m-632 -228 c83 -54 172 -170 165 -216 -8 -58 -104 -21 -196 76
-123 130 -102 227 31 140z m-427 -309 c70 -54 156 -222 139 -275 -12 -38 -54
-25 -109 33 -76 78 -131 203 -113 252 9 22 46 18 83 -10z m-1606 -80 c16 -19
16 -107 0 -166 -17 -65 -71 -160 -96 -171 -13 -6 -30 -8 -40 -4 -14 5 -16 18
-12 89 6 98 36 183 82 232 37 39 48 42 66 20z m486 -80 c14 -21 16 -43 12
-120 -4 -78 -10 -104 -34 -152 -35 -69 -56 -85 -81 -60 -15 14 -18 35 -18 110
0 99 20 175 56 221 26 33 44 33 65 1z m617 -12 c62 -108 61 -333 -2 -333 -61
0 -116 241 -76 336 19 45 51 43 78 -3z m3634 -1159 c-3 -3 -2 -16 3 -29 11
-28 -13 -52 -85 -88 -82 -41 -228 -78 -627 -160 l-116 -24 16 26 c33 53 45 60
141 82 414 92 518 121 621 175 47 24 57 28 47 18z m-1057 -939 c12 7 -21 -88
-48 -142 -49 -95 -124 -145 -237 -157 l-60 -7 56 24 c67 28 119 67 160 118 29
36 107 193 111 220 1 8 3 -3 5 -24 2 -20 8 -35 13 -32z m1318 8 c-20 -75 -78
-153 -155 -211 -59 -44 -180 -108 -189 -100 -3 4 4 23 14 45 13 25 55 65 123
118 57 44 128 104 159 132 30 29 56 53 57 53 1 0 -3 -17 -9 -37z m-2331 -497
c15 -16 18 -27 11 -34 -13 -13 -11 -122 3 -194 41 -207 40 -248 -9 -344 -47
-93 -159 -181 -252 -199 l-35 -6 35 27 c67 54 111 110 150 189 65 135 85 287
66 493 -9 98 -4 108 31 68z m1786 -455 c-43 -58 -109 -74 -383 -90 -216 -13
-302 -30 -407 -82 -102 -49 -167 -112 -329 -322 -127 -163 -206 -247 -257
-273 -26 -14 -22 -7 21 31 30 27 125 143 212 259 182 242 226 289 330 346 135
74 216 92 495 110 163 10 246 25 300 51 37 18 44 6 18 -30z m-3231 -151 c-23
-16 -75 -72 -116 -124 -83 -104 -136 -153 -211 -196 -61 -34 -174 -70 -223
-70 l-36 0 50 31 c85 54 134 99 209 194 116 146 192 194 309 195 l59 0 -41
-30z m1379 -493 c12 -9 18 -36 23 -99 3 -47 11 -109 16 -138 5 -29 7 -57 3
-63 -3 -6 -1 -7 5 -3 8 5 10 -2 6 -21 -3 -16 2 -59 10 -96 19 -83 19 -87 3
-87 -15 0 -68 120 -93 210 -18 67 -26 259 -12 293 9 20 17 21 39 4z m-452 -28
c34 -12 51 -35 51 -69 0 -34 -67 -130 -147 -208 -115 -114 -228 -157 -359
-137 -53 8 -49 16 20 39 112 37 204 120 241 216 26 68 66 128 101 151 34 22
49 23 93 8z m1020 -1144 c16 -8 31 -21 34 -29 5 -12 -1 -12 -31 -4 -35 10 -51
23 -52 41 0 11 18 8 49 -8z"/>
</g>
</svg>
